<?xml version="1.0" encoding="UTF-8" standalone="no"?>
<svg
   width="43.973969"
   zoomAndPan="magnify"
   viewBox="0 0 32.980476 32.196304"
   height="42.928406"
   preserveAspectRatio="xMidYMid"
   version="1.0"
   id="svg4119"
   sodipodi:docname="Platinum Bond, James_007 27042026-2.svg"
   xmlns:inkscape="http://www.inkscape.org/namespaces/inkscape"
   xmlns:sodipodi="http://sodipodi.sourceforge.net/DTD/sodipodi-0.dtd"
   xmlns="http://www.w3.org/2000/svg"
   xmlns:svg="http://www.w3.org/2000/svg">
  <sodipodi:namedview
     id="namedview4119"
     pagecolor="#ffffff"
     bordercolor="#000000"
     borderopacity="0.25"
     inkscape:showpageshadow="2"
     inkscape:pageopacity="0.0"
     inkscape:pagecheckerboard="0"
     inkscape:deskcolor="#d1d1d1" />
  <defs
     id="defs629">
    <clipPath
       id="83ab81781c">
      <path
         d="M 0.015625,0 H 594.98437 V 841.5 H 0.015625 Z m 0,0"
         clip-rule="nonzero"
         id="path2" />
    </clipPath>
    <clipPath
       id="7bb43263ff">
      <path
         d="m 254,450.55078 h 32.94922 V 478 H 254 Z m 0,0"
         clip-rule="nonzero"
         id="path588" />
    </clipPath>
    <clipPath
       id="4d4cd790cd">
      <path
         d="m 253.96875,454 h 32.98047 v 28.78516 h -32.98047 z m 0,0"
         clip-rule="nonzero"
         id="path589" />
    </clipPath>
    <clipPath
       id="c0c904b505">
      <rect
         x="0"
         width="595"
         y="0"
         height="842"
         id="rect629" />
    </clipPath>
  </defs>
  <g
     clip-path="url(#83ab81781c)"
     id="g4119"
     transform="translate(-253.96875,-450.57032)">
    <g
       id="g4118">
      <g
         clip-path="url(#c0c904b505)"
         id="g4117">
        <g
           clip-path="url(#7bb43263ff)"
           id="g983"
           inkscape:export-filename="../../../../Projects/gutolution/generate-report/templates/Platinum_ENG/at-a-glance/images/slider-arrow.svg"
           inkscape:export-xdpi="330"
           inkscape:export-ydpi="330">
          <path
             fill="#62b6aa"
             d="m 286.25,450.57031 -16,27.09766 -15.60156,-27.09766 15.80078,6.19531 15.80078,-6.19531"
             fill-opacity="1"
             fill-rule="nonzero"
             id="path982" />
        </g>
        <g
           clip-path="url(#4d4cd790cd)"
           id="g984">
          <path
             fill="#393839"
             d="m 285.64844,454.63281 c -1.10547,1.875 -2.21094,3.75 -3.32032,5.625 -2.24218,3.80078 -4.48828,7.60547 -6.73437,11.40625 -1.76953,2.9961 -3.53516,5.99219 -5.30469,8.98438 -0.21094,0.36328 -0.42578,0.72265 -0.63672,1.08203 h 1.19922 c -1.09375,-1.89453 -2.18359,-3.78906 -3.27344,-5.6836 -2.20312,-3.82812 -4.40625,-7.65625 -6.60937,-11.48437 -1.71484,-2.97656 -3.42969,-5.95703 -5.14453,-8.9375 -0.19141,-0.33203 -0.38281,-0.66016 -0.57422,-0.99219 -0.26172,0.33985 -0.52344,0.67578 -0.78516,1.01563 2.98828,1.17187 5.97657,2.34375 8.96485,3.51562 1.8164,0.71094 3.63281,1.42578 5.44922,2.13672 0.42968,0.16797 0.85937,0.33984 1.28906,0.50781 0.29297,0.11328 0.51953,0.0156 0.78515,-0.0898 3.52735,-1.38281 7.05469,-2.76563 10.58204,-4.14844 1.63281,-0.64062 3.26562,-1.28125 4.89843,-1.92187 0.35157,-0.13672 0.59375,-0.45703 0.48828,-0.85157 -0.0937,-0.33203 -0.5039,-0.62109 -0.85546,-0.48046 -2.98829,1.16796 -5.97657,2.33984 -8.96485,3.51171 -2.27734,0.89454 -4.55469,1.78907 -6.83594,2.6836 h 0.3711 c -2.98828,-1.17188 -5.97656,-2.34375 -8.96485,-3.51563 -2.27734,-0.89453 -4.55859,-1.78906 -6.83593,-2.67968 -0.59766,-0.23438 -1.0625,0.53125 -0.78516,1.01562 1.08984,1.89453 2.17969,3.78906 3.27344,5.68359 2.20312,3.82813 4.40625,7.65625 6.60937,11.48438 1.71485,2.97656 3.42969,5.95703 5.14453,8.9375 0.19141,0.33203 0.38282,0.66016 0.57422,0.99219 0.25782,0.45312 0.9375,0.44531 1.19922,0 1.10547,-1.875 2.21094,-3.75 3.32031,-5.625 2.2461,-3.80078 4.48829,-7.60157 6.73438,-11.40625 1.76953,-2.9961 3.53516,-5.99219 5.30469,-8.98438 0.21484,-0.36328 0.42578,-0.72265 0.64062,-1.08203 0.45313,-0.77344 -0.74609,-1.46875 -1.19922,-0.69922"
             fill-opacity="1"
             fill-rule="nonzero"
             id="path983" />
        </g>
      </g>
    </g>
  </g>
</svg>
